<?xml version="1.0" standalone="no"?>
<!DOCTYPE svg PUBLIC "-//W3C//DTD SVG 20010904//EN"
 "http://www.w3.org/TR/2001/REC-SVG-20010904/DTD/svg10.dtd">
<svg version="1.0" xmlns="http://www.w3.org/2000/svg"
 width="300.000000pt" height="300.000000pt" viewBox="0 0 300.000000 300.000000"
 preserveAspectRatio="xMidYMid meet">
<metadata>
Created by potrace 1.10, written by Peter Selinger 2001-2011
</metadata>
<g transform="translate(0.000000,300.000000) scale(0.100000,-0.100000)"
fill="#ACACAC" stroke="none">
<path d="M1442 2558 c-8 -8 -12 -55 -12 -160 l0 -148 -170 0 -169 0 -3 68 -3
67 -79 3 c-57 2 -82 -1 -87 -10 -14 -21 -11 -282 3 -296 16 -16 1119 -17 1149
-2 17 10 19 22 19 148 0 75 -4 143 -9 150 -5 9 -30 12 -87 10 l-79 -3 -3 -67
-3 -68 -164 0 -164 0 -3 158 -3 157 -60 3 c-38 2 -65 -2 -73 -10z"/>
<path d="M916 1924 c-11 -28 -6 -140 6 -152 9 -9 78 -12 250 -12 l238 0 0
-202 1 -203 44 -50 45 -49 45 49 44 50 1 203 0 202 238 0 c172 0 241 3 250 12
12 12 17 124 6 152 -6 14 -66 16 -584 16 -518 0 -578 -2 -584 -16z"/>
<path d="M916 1624 c-12 -31 -7 -399 6 -412 8 -8 47 -12 108 -12 l95 0 95 -95
c52 -52 102 -95 110 -95 20 0 110 91 110 111 0 8 -38 52 -85 99 l-85 85 0 151
c0 84 -3 159 -6 168 -5 14 -30 16 -174 16 -144 0 -169 -2 -174 -16z"/>
<path d="M1736 1624 c-3 -9 -6 -84 -6 -168 l0 -151 -85 -85 c-47 -47 -85 -89
-85 -95 0 -6 25 -35 55 -65 l55 -54 98 97 97 97 101 0 c64 0 104 4 112 12 13
13 18 381 6 412 -5 14 -30 16 -174 16 -144 0 -169 -2 -174 -16z"/>
<path d="M1352 847 c-72 -73 -132 -137 -132 -142 0 -13 262 -275 275 -275 13
0 275 262 275 275 0 13 -262 275 -275 275 -6 0 -70 -60 -143 -133z"/>
</g>
</svg>
